<mxfile host="app.diagrams.net" modified="2023-12-04T16:31:20.057Z" agent="Mozilla/5.0 (Windows NT 10.0; Win64; x64) AppleWebKit/537.36 (KHTML, like Gecko) Chrome/119.0.0.0 Safari/537.36" etag="mePQFKU3wglmydPoBCRv" version="22.1.5" type="github">
  <diagram id="C5RBs43oDa-KdzZeNtuy" name="Page-1">
    <mxGraphModel dx="1434" dy="738" grid="1" gridSize="10" guides="0" tooltips="1" connect="1" arrows="1" fold="1" page="1" pageScale="1" pageWidth="827" pageHeight="1169" math="0" shadow="0">
      <root>
        <mxCell id="WIyWlLk6GJQsqaUBKTNV-0" />
        <mxCell id="WIyWlLk6GJQsqaUBKTNV-1" parent="WIyWlLk6GJQsqaUBKTNV-0" />
        <mxCell id="DWGtGGulYGIywvVgevAQ-7" style="edgeStyle=orthogonalEdgeStyle;rounded=0;orthogonalLoop=1;jettySize=auto;html=1;exitX=0.75;exitY=1;exitDx=0;exitDy=0;" edge="1" parent="WIyWlLk6GJQsqaUBKTNV-1" source="DWGtGGulYGIywvVgevAQ-0" target="DWGtGGulYGIywvVgevAQ-4">
          <mxGeometry relative="1" as="geometry" />
        </mxCell>
        <mxCell id="DWGtGGulYGIywvVgevAQ-8" style="edgeStyle=orthogonalEdgeStyle;rounded=0;orthogonalLoop=1;jettySize=auto;html=1;exitX=0.25;exitY=1;exitDx=0;exitDy=0;" edge="1" parent="WIyWlLk6GJQsqaUBKTNV-1" source="DWGtGGulYGIywvVgevAQ-0" target="DWGtGGulYGIywvVgevAQ-3">
          <mxGeometry relative="1" as="geometry" />
        </mxCell>
        <mxCell id="DWGtGGulYGIywvVgevAQ-0" value="Source&amp;nbsp;" style="rounded=0;whiteSpace=wrap;html=1;" vertex="1" parent="WIyWlLk6GJQsqaUBKTNV-1">
          <mxGeometry x="354" y="220" width="120" height="60" as="geometry" />
        </mxCell>
        <mxCell id="DWGtGGulYGIywvVgevAQ-10" style="edgeStyle=orthogonalEdgeStyle;rounded=0;orthogonalLoop=1;jettySize=auto;html=1;exitX=0.25;exitY=1;exitDx=0;exitDy=0;" edge="1" parent="WIyWlLk6GJQsqaUBKTNV-1" source="DWGtGGulYGIywvVgevAQ-3" target="DWGtGGulYGIywvVgevAQ-11">
          <mxGeometry relative="1" as="geometry">
            <mxPoint x="210" y="470" as="targetPoint" />
          </mxGeometry>
        </mxCell>
        <mxCell id="DWGtGGulYGIywvVgevAQ-12" style="edgeStyle=orthogonalEdgeStyle;rounded=0;orthogonalLoop=1;jettySize=auto;html=1;exitX=0.75;exitY=1;exitDx=0;exitDy=0;" edge="1" parent="WIyWlLk6GJQsqaUBKTNV-1" source="DWGtGGulYGIywvVgevAQ-3" target="DWGtGGulYGIywvVgevAQ-13">
          <mxGeometry relative="1" as="geometry">
            <mxPoint x="370" y="440" as="targetPoint" />
          </mxGeometry>
        </mxCell>
        <mxCell id="DWGtGGulYGIywvVgevAQ-3" value="IndeedSource" style="rounded=0;whiteSpace=wrap;html=1;" vertex="1" parent="WIyWlLk6GJQsqaUBKTNV-1">
          <mxGeometry x="234" y="340" width="120" height="60" as="geometry" />
        </mxCell>
        <mxCell id="DWGtGGulYGIywvVgevAQ-16" style="edgeStyle=orthogonalEdgeStyle;rounded=0;orthogonalLoop=1;jettySize=auto;html=1;exitX=0.75;exitY=1;exitDx=0;exitDy=0;entryX=0.5;entryY=0;entryDx=0;entryDy=0;" edge="1" parent="WIyWlLk6GJQsqaUBKTNV-1" source="DWGtGGulYGIywvVgevAQ-4" target="DWGtGGulYGIywvVgevAQ-14">
          <mxGeometry relative="1" as="geometry" />
        </mxCell>
        <mxCell id="DWGtGGulYGIywvVgevAQ-17" style="edgeStyle=orthogonalEdgeStyle;rounded=0;orthogonalLoop=1;jettySize=auto;html=1;exitX=0.25;exitY=1;exitDx=0;exitDy=0;entryX=0.5;entryY=0;entryDx=0;entryDy=0;" edge="1" parent="WIyWlLk6GJQsqaUBKTNV-1" source="DWGtGGulYGIywvVgevAQ-4" target="DWGtGGulYGIywvVgevAQ-15">
          <mxGeometry relative="1" as="geometry" />
        </mxCell>
        <mxCell id="DWGtGGulYGIywvVgevAQ-4" value="LinkedinSource" style="rounded=0;whiteSpace=wrap;html=1;" vertex="1" parent="WIyWlLk6GJQsqaUBKTNV-1">
          <mxGeometry x="470" y="340" width="120" height="60" as="geometry" />
        </mxCell>
        <mxCell id="DWGtGGulYGIywvVgevAQ-11" value="IndeedSoftwareEngineer" style="rounded=0;whiteSpace=wrap;html=1;" vertex="1" parent="WIyWlLk6GJQsqaUBKTNV-1">
          <mxGeometry x="40" y="440" width="140" height="60" as="geometry" />
        </mxCell>
        <mxCell id="DWGtGGulYGIywvVgevAQ-13" value="IndeedPythonEngineer" style="rounded=0;whiteSpace=wrap;html=1;" vertex="1" parent="WIyWlLk6GJQsqaUBKTNV-1">
          <mxGeometry x="190" y="525" width="140" height="60" as="geometry" />
        </mxCell>
        <mxCell id="DWGtGGulYGIywvVgevAQ-14" value="LinkedinPythonEngineer" style="rounded=0;whiteSpace=wrap;html=1;" vertex="1" parent="WIyWlLk6GJQsqaUBKTNV-1">
          <mxGeometry x="620" y="500" width="140" height="60" as="geometry" />
        </mxCell>
        <mxCell id="DWGtGGulYGIywvVgevAQ-15" value="LinkedinSoftwareEngineer" style="rounded=0;whiteSpace=wrap;html=1;" vertex="1" parent="WIyWlLk6GJQsqaUBKTNV-1">
          <mxGeometry x="380" y="490" width="140" height="60" as="geometry" />
        </mxCell>
      </root>
    </mxGraphModel>
  </diagram>
</mxfile>
